<mxfile host="app.diagrams.net" modified="2023-10-17T04:33:49.173Z" agent="Mozilla/5.0 (Windows NT 10.0; Win64; x64; rv:109.0) Gecko/20100101 Firefox/118.0" etag="IhR_sLzT8djxAfywCZZJ" version="22.0.4" type="github">
  <diagram name="Page-1" id="s8PH3Wqv97rvq9y7nNQX">
    <mxGraphModel dx="880" dy="1525" grid="1" gridSize="10" guides="1" tooltips="1" connect="1" arrows="1" fold="1" page="1" pageScale="1" pageWidth="850" pageHeight="1100" math="0" shadow="0">
      <root>
        <mxCell id="0" />
        <mxCell id="1" parent="0" />
        <mxCell id="UQFFGpEZMZsXH1XM8Dkc-1" value="Start" style="strokeWidth=2;html=1;shape=mxgraph.flowchart.terminator;whiteSpace=wrap;fillColor=#d5e8d4;strokeColor=#82b366;" parent="1" vertex="1">
          <mxGeometry x="320" y="-710" width="120" height="60" as="geometry" />
        </mxCell>
        <mxCell id="UQFFGpEZMZsXH1XM8Dkc-2" value="" style="endArrow=classic;html=1;rounded=0;exitX=0.5;exitY=1;exitDx=0;exitDy=0;exitPerimeter=0;" parent="1" source="UQFFGpEZMZsXH1XM8Dkc-1" edge="1">
          <mxGeometry width="50" height="50" relative="1" as="geometry">
            <mxPoint x="400" y="-450" as="sourcePoint" />
            <mxPoint x="380" y="-600" as="targetPoint" />
          </mxGeometry>
        </mxCell>
        <mxCell id="UQFFGpEZMZsXH1XM8Dkc-7" value="Genap" style="shape=parallelogram;html=1;strokeWidth=2;perimeter=parallelogramPerimeter;whiteSpace=wrap;rounded=1;arcSize=12;size=0.23;fillColor=#d5e8d4;strokeColor=#82b366;" parent="1" vertex="1">
          <mxGeometry x="510" y="-330" width="130" height="60" as="geometry" />
        </mxCell>
        <mxCell id="55-CdeqMj2At2X1I5l8e-3" value="" style="edgeStyle=orthogonalEdgeStyle;rounded=0;orthogonalLoop=1;jettySize=auto;html=1;" edge="1" parent="1" source="UQFFGpEZMZsXH1XM8Dkc-5" target="55-CdeqMj2At2X1I5l8e-2">
          <mxGeometry relative="1" as="geometry" />
        </mxCell>
        <mxCell id="UQFFGpEZMZsXH1XM8Dkc-5" value="bilangan 6%2=0" style="strokeWidth=2;html=1;shape=mxgraph.flowchart.decision;whiteSpace=wrap;fillColor=#d5e8d4;strokeColor=#82b366;" parent="1" vertex="1">
          <mxGeometry x="305" y="-370" width="160" height="120" as="geometry" />
        </mxCell>
        <mxCell id="UQFFGpEZMZsXH1XM8Dkc-12" value="End" style="strokeWidth=2;html=1;shape=mxgraph.flowchart.terminator;whiteSpace=wrap;fillColor=#d5e8d4;strokeColor=#82b366;" parent="1" vertex="1">
          <mxGeometry x="330" y="-170" width="105" height="60" as="geometry" />
        </mxCell>
        <mxCell id="UQFFGpEZMZsXH1XM8Dkc-13" value="&lt;div&gt;jika bil %2=0, maka genap&lt;/div&gt;&lt;div&gt;jika bil %2bukan=0, maka ganjil&lt;br&gt;&lt;/div&gt;" style="rounded=1;whiteSpace=wrap;html=1;absoluteArcSize=1;arcSize=14;strokeWidth=2;fillColor=#d5e8d4;strokeColor=#82b366;" parent="1" vertex="1">
          <mxGeometry x="280" y="-600" width="210" height="60" as="geometry" />
        </mxCell>
        <mxCell id="UQFFGpEZMZsXH1XM8Dkc-14" value="nilai bilangan 6" style="shape=parallelogram;html=1;strokeWidth=2;perimeter=parallelogramPerimeter;whiteSpace=wrap;rounded=1;arcSize=12;size=0.23;fillColor=#d5e8d4;strokeColor=#82b366;" parent="1" vertex="1">
          <mxGeometry x="260" y="-490" width="220" height="60" as="geometry" />
        </mxCell>
        <mxCell id="UQFFGpEZMZsXH1XM8Dkc-15" value="" style="endArrow=classic;html=1;rounded=0;exitX=0.5;exitY=1;exitDx=0;exitDy=0;entryX=0.577;entryY=-0.017;entryDx=0;entryDy=0;entryPerimeter=0;" parent="1" source="UQFFGpEZMZsXH1XM8Dkc-13" target="UQFFGpEZMZsXH1XM8Dkc-14" edge="1">
          <mxGeometry width="50" height="50" relative="1" as="geometry">
            <mxPoint x="440" y="-520" as="sourcePoint" />
            <mxPoint x="380" y="-500" as="targetPoint" />
          </mxGeometry>
        </mxCell>
        <mxCell id="UQFFGpEZMZsXH1XM8Dkc-16" value="" style="endArrow=classic;html=1;rounded=0;exitX=0.559;exitY=1.033;exitDx=0;exitDy=0;exitPerimeter=0;" parent="1" source="UQFFGpEZMZsXH1XM8Dkc-14" target="UQFFGpEZMZsXH1XM8Dkc-5" edge="1">
          <mxGeometry width="50" height="50" relative="1" as="geometry">
            <mxPoint x="400" y="-390" as="sourcePoint" />
            <mxPoint x="450" y="-440" as="targetPoint" />
          </mxGeometry>
        </mxCell>
        <mxCell id="UQFFGpEZMZsXH1XM8Dkc-17" value="" style="endArrow=classic;html=1;rounded=0;" parent="1" edge="1">
          <mxGeometry width="50" height="50" relative="1" as="geometry">
            <mxPoint x="465" y="-310" as="sourcePoint" />
            <mxPoint x="530" y="-310" as="targetPoint" />
          </mxGeometry>
        </mxCell>
        <mxCell id="UQFFGpEZMZsXH1XM8Dkc-18" value="" style="strokeWidth=2;html=1;shape=mxgraph.flowchart.annotation_1;align=left;pointerEvents=1;rotation=-180;" parent="1" vertex="1">
          <mxGeometry x="630" y="-310" width="50" height="180" as="geometry" />
        </mxCell>
        <mxCell id="UQFFGpEZMZsXH1XM8Dkc-24" value="" style="endArrow=classic;html=1;rounded=0;exitX=1;exitY=0;exitDx=0;exitDy=0;exitPerimeter=0;" parent="1" source="UQFFGpEZMZsXH1XM8Dkc-18" edge="1">
          <mxGeometry width="50" height="50" relative="1" as="geometry">
            <mxPoint x="510" y="-130" as="sourcePoint" />
            <mxPoint x="430" y="-130" as="targetPoint" />
          </mxGeometry>
        </mxCell>
        <mxCell id="55-CdeqMj2At2X1I5l8e-1" value="y" style="text;strokeColor=none;align=center;fillColor=none;html=1;verticalAlign=middle;whiteSpace=wrap;rounded=0;" vertex="1" parent="1">
          <mxGeometry x="470" y="-350" width="60" height="30" as="geometry" />
        </mxCell>
        <mxCell id="55-CdeqMj2At2X1I5l8e-4" style="edgeStyle=orthogonalEdgeStyle;rounded=0;orthogonalLoop=1;jettySize=auto;html=1;entryX=0;entryY=0.5;entryDx=0;entryDy=0;entryPerimeter=0;" edge="1" parent="1" source="55-CdeqMj2At2X1I5l8e-2" target="UQFFGpEZMZsXH1XM8Dkc-12">
          <mxGeometry relative="1" as="geometry">
            <mxPoint x="175" y="-120" as="targetPoint" />
            <Array as="points">
              <mxPoint x="175" y="-200" />
              <mxPoint x="176" y="-200" />
              <mxPoint x="176" y="-140" />
            </Array>
          </mxGeometry>
        </mxCell>
        <mxCell id="55-CdeqMj2At2X1I5l8e-2" value="ganjil" style="shape=parallelogram;html=1;strokeWidth=2;perimeter=parallelogramPerimeter;whiteSpace=wrap;rounded=1;arcSize=12;size=0.23;fillColor=#d5e8d4;strokeColor=#82b366;" vertex="1" parent="1">
          <mxGeometry x="110" y="-340" width="130" height="60" as="geometry" />
        </mxCell>
        <mxCell id="55-CdeqMj2At2X1I5l8e-5" value="t" style="text;strokeColor=none;align=center;fillColor=none;html=1;verticalAlign=middle;whiteSpace=wrap;rounded=0;" vertex="1" parent="1">
          <mxGeometry x="250" y="-340" width="60" height="30" as="geometry" />
        </mxCell>
      </root>
    </mxGraphModel>
  </diagram>
</mxfile>
